<mxfile host="app.diagrams.net" modified="2023-09-02T11:33:56.061Z" agent="Mozilla/5.0 (Windows NT 10.0; Win64; x64) AppleWebKit/537.36 (KHTML, like Gecko) Chrome/116.0.0.0 Safari/537.36" version="21.2.3" etag="dxjIaw2y-npkUPQxP2J5" type="github">
  <diagram name="第 1 页" id="cYuP9_Ojqshvzmye1KVs">
    <mxGraphModel>
      <root>
        <mxCell id="0" />
        <mxCell id="1" parent="0" />
      </root>
    </mxGraphModel>
  </diagram>
</mxfile>
